<?xml version="1.0" encoding="UTF-8"?>
<svg style="fill:currentcolor" width="50pt" height="40pt" version="1.1" viewBox="100 0 500 500" xmlns="http://www.w3.org/2000/svg" xmlns:xlink="http://www.w3.org/1999/xlink">
 <g>
  <path d="m186.21 85.824c-3.7695 2.6953-6.3047 7.707-6.3047 13.461 0 5.7578 2.543 10.77 6.3047 13.461 3.7695-2.6953 6.3047-7.707 6.3047-13.461s-2.5391-10.773-6.3047-13.461z"/>
  <path d="m512.87 100.94c-4.4258 3.9023-7.4102 11.172-7.4102 19.523 0 8.3477 2.9844 15.617 7.4102 19.523 4.4258-3.9023 7.4102-11.172 7.4102-19.523-0.003906-8.3516-2.9883-15.621-7.4102-19.523z"/>
  <path d="m423.29 56.504c-2.2109 1.9531-3.707 5.5898-3.707 9.7617s1.4961 7.8125 3.707 9.7617c2.2109-1.9531 3.707-5.5898 3.707-9.7617-0.003906-4.1797-1.4961-7.8125-3.707-9.7617z"/>
  <path d="m286.63 37.453c-2.7148 2.2461-4.5547 6.4297-4.5547 11.234s1.832 8.9883 4.5547 11.234c2.7148-2.2461 4.5469-6.4297 4.5469-11.234s-1.8281-8.9883-4.5469-11.234z"/>
  <path d="m349.27 140.76c-19.188 11.426-32.129 32.711-32.129 57.141 0 24.434 12.941 45.719 32.129 57.141 19.188-11.426 32.129-32.711 32.129-57.141-0.003906-24.43-12.945-45.711-32.129-57.141z"/>
  <path d="m520.28 74.984c-23.828 0-43.141 19.312-43.141 43.141 0 16.543 9.3242 30.895 22.988 38.137-2.0117 5.9062-4.3906 11.246-7.0859 14.633-3.9023 4.9102-11.832 10.051-19.914 14.34-9.7344-29.809-29.922-54.93-56.262-70.945 2.8672-5.0195 5.8281-10.406 8.1484-15.113 1.9727-4 3.5547-9.2578 4.8398-14.738 10.168-1.7344 17.93-10.539 17.93-21.207 0-11.918-9.6602-21.57-21.57-21.57-11.91 0-21.57 9.6602-21.57 21.57 0 8.9492 5.4531 16.625 13.215 19.891-1.0234 4.1719-2.2188 7.9727-3.5898 10.762-2.2109 4.4961-5.1055 9.7539-7.918 14.668-17.176-8.3789-36.457-13.094-56.816-13.094-15.902 0-31.121 2.9336-45.215 8.1875-1.2773-1.6953-2.4453-3.4219-3.3203-5.1875-3.3672-6.7891-5.8125-18.855-7.375-29.266 9.2852-4 15.793-13.215 15.793-23.969 0-14.414-11.68-26.098-26.098-26.098-14.414 0-26.098 11.68-26.098 26.098 0 12.145 8.3398 22.262 19.57 25.172 1.6406 11.391 4.5039 26.141 9.1523 35.516 0.8125 1.6367 1.7578 3.207 2.7656 4.7539-20.105 10.707-37.117 26.488-49.223 45.691-11.594-4.6094-24.824-10.93-31.316-17.477-3.4336-3.4648-6.3516-8.5117-8.7695-13.977 8.2773-6.0312 13.676-15.77 13.676-26.789 0-18.316-14.844-33.164-33.164-33.164-18.316 0-33.164 14.844-33.164 33.164 0 17.566 13.668 31.902 30.945 33.051 3.5273 8.5234 8.2773 17.137 14.566 23.48 8.9375 9.0234 24.148 16.527 36.91 21.727-6.2109 15.164-9.6602 31.734-9.6602 49.113 0 3.1016 0.13281 6.3633 0.41406 9.9336-1.9219 2.9727-4.6328 6.3242-7.7227 10.148-13.91 17.207-34.934 43.211-28.062 88.52 2.9414 19.395 15.824 29.031 27.199 37.535 10.059 7.5273 19.566 14.629 21.504 27.559 1.1914 7.9453-1.793 18.543-8.8711 31.484-13.777 25.184 13.875 60.082 15.059 61.555 0.55469 0.68359 1.3672 1.0469 2.1836 1.0469 0.59766 0 1.1992-0.19141 1.7148-0.58203 1.2031-0.93359 1.4453-2.6641 0.53125-3.8867-0.78906-1.0547-19.051-26.113 0.76562-46.156 16.117-16.297 24.289-31.762 24.289-45.969 0-24.684-12.848-37.594-23.168-47.957-7.5664-7.5977-14.102-14.168-14.637-23.598-0.44141-7.75 2.2461-14.387 7.9922-19.77 7.4297 9.9609 18.531 20.512 27.59 29.125 3.2969 3.1367 6.3008 5.9883 8.6953 8.4102 9.0234 9.1211 19.906 25.305 20.906 40.906 1.5781 24.672-19.605 48.574-19.824 48.816-1.0078 1.1133-0.94531 2.8281 0.12891 3.875 1.082 1.0547 2.793 1.0547 3.8789 0.023437 1.0625-1.0117 26.129-25.094 28.855-52.152 1.1602-11.473-0.92969-24.078-6.2031-37.543 9.9727 3.8516 20.371 6.4531 31.008 7.7383 1.7812 2.5742 3.0352 5.1133 3.8242 7.7344 0.35156 1.1641 0.62891 2.375 0.81641 3.6328 1.1523 7.6484-3.0352 15.176-8.3281 24.703l-2.0898 3.7812c-13.809 25.258 20.25 64.973 21.707 66.645 0.98438 1.1328 2.6992 1.2891 3.8711 0.34766 1.1719-0.94531 1.3906-2.6484 0.48828-3.8516-0.25391-0.33984-25.066-34.215-5.2852-54.227 13.66-13.809 20.875-29.664 20.875-45.84 0-1.2109-0.054687-2.375-0.13281-3.5039 7.4648-1.1523 14.797-2.9414 21.891-5.3438-6.7266 10.723-13.766 23.586-11.68 33.285 4.5547 21.262 35.531 55.777 36.848 57.238 0.94531 1.0469 2.5273 1.2227 3.6719 0.42187 1.1602-0.80469 1.5352-2.3398 0.88672-3.5938-0.19531-0.375-19.812-38.23-19.281-56.957 0.20312-7.3086 6.0586-16.984 16.922-27.977 8.7695-8.8711 25.48-28.258 32.805-44.961 2.2578-2.8555 4.4062-5.8242 6.418-8.8594 7 5.6211 10.293 12.797 9.8047 21.363-0.54297 9.4297-7.0742 15.992-14.637 23.598-10.32 10.371-23.168 23.273-23.168 47.957 0 14.203 8.1719 29.668 24.289 45.965 19.758 19.98 1.5469 45.109 0.76562 46.168-0.90625 1.2266-0.66797 2.9531 0.53906 3.8789 1.2266 0.94141 2.9414 0.72266 3.8906-0.46094 1.1875-1.4766 28.836-36.379 15.059-61.562-7.0859-12.945-10.07-23.535-8.875-31.477 1.9492-12.93 11.445-20.031 21.508-27.559 11.367-8.5117 24.258-18.145 27.199-37.535 6.875-45.316-14.152-71.316-28.066-88.523-2.6641-3.293-4.9961-6.1758-6.8203-8.8047 0.0625-1.5742 0.10547-3.1523 0.10547-4.7422 0-3.9883-0.24609-7.918-0.59766-11.816 11.418-5.3984 27.203-14.273 36.008-25.355 5.957-7.5 10.227-17.961 13.203-27.797 20.055-3.7109 35.258-21.262 35.258-42.391-0.003906-23.832-19.32-43.145-43.148-43.145zm-109.1-10.289c0-6.793 6.0469-12.305 13.508-12.305s13.508 5.5039 13.508 12.305c0 6.7969-6.0469 12.305-13.508 12.305s-13.508-5.5039-13.508-12.305zm-227.79 53.43c-10.051 0-18.199-8.8945-18.199-19.867 0-10.969 8.1484-19.867 18.199-19.867s18.199 8.8945 18.199 19.867c0 10.977-8.1484 19.867-18.199 19.867zm101.67-56.156c-9.2695 0-16.781-6.5508-16.781-14.637 0-8.0859 7.5156-14.637 16.781-14.637 9.2695 0 16.781 6.5508 16.781 14.637 0.007813 8.0781-7.5078 14.637-16.781 14.637zm129.45 228.74c0.10156 9.0625-10.98 25.027-13.02 28.145-0.32031 0.48828-0.64453 0.91797-0.97266 1.293l-5.3594-27.234-5.5625 28.281c-2.0273-0.62109-4.3867-1.4102-7.1641-2.2461l-5.6289-28.617-5.1133 25.977c-0.99609-0.19141-2.0039-0.37891-3.0781-0.55469-0.39062-0.0625-0.75781-0.12891-1.1641-0.19141-0.88672-0.12891-1.8477-0.23438-2.7812-0.34766-0.61719-0.074219-1.25-0.14453-1.8711-0.21875l-4.3438-22.094-4.2344 21.516c-1.5977-0.054687-3.2148-0.10547-4.9453-0.11328-1.7305 0.003907-3.3477 0.050781-4.9453 0.11328l-4.2344-21.516-4.3438 22.094c-0.62891 0.074218-1.2539 0.14062-1.8711 0.21875-0.93359 0.11328-1.9023 0.21875-2.7812 0.34766-0.40234 0.0625-0.76562 0.12891-1.1641 0.19141-1.0742 0.17188-2.082 0.35938-3.0781 0.55469l-5.1133-25.977-5.6289 28.617c-2.7812 0.83594-5.1367 1.625-7.1641 2.2461l-5.5625-28.281-5.3594 27.234c-0.33203-0.37891-0.65625-0.80469-0.97266-1.293-2.043-3.1211-13.121-19.086-13.02-28.145-0.003907-0.0625 0-0.11719 0-0.17188 0.003906-0.24609-0.015625-0.50781 0.003906-0.74609-0.039063-2.8008 0.875-5.0273 3.3594-6.1055 0.35938-0.15234 0.76562-0.23438 1.1484-0.36328l5.668 23 5.8008-23.555c2.0938 0.25781 4.3008 0.64844 6.5859 1.1211l5.9688 24.227 5.3047-21.52c2.6367 0.6875 5.3047 1.3828 7.9805 2.0625l5.0781 20.609 4.5312-18.387c3.3828 0.6875 6.6914 1.2383 9.8438 1.5078l3.9883 16.18 3.9883-16.18c3.1484-0.26953 6.4609-0.81641 9.8438-1.5078l4.5312 18.387 5.0781-20.609c2.6758-0.67578 5.3438-1.3789 7.9805-2.0625l5.3047 21.52 5.9688-24.227c2.2852-0.47656 4.4922-0.86328 6.5859-1.1211l5.8008 23.555 5.668-23c0.37891 0.125 0.78906 0.20703 1.1484 0.36328 2.4883 1.0742 3.3984 3.3047 3.3594 6.1055 0.023438 0.23438 0 0.5 0.003906 0.74609-0.054687 0.054688-0.042968 0.10938-0.046875 0.17188zm-64.996-14.25c-48.598 0-88-33.02-88-73.746 0-40.73 39.395-73.746 88-73.746 48.602 0 88 33.02 88 73.746 0 40.727-39.402 73.746-88 73.746zm165.59-131.44c-13.578 0-24.586-12.039-24.586-26.887 0-14.844 11.008-26.887 24.586-26.887 13.578 0 24.586 12.039 24.586 26.887-0.003906 14.844-11.012 26.887-24.586 26.887z"/>
 </g>
</svg>
